# Blender v2.79 (sub 0) OBJ File: 'pointer.blend'
# www.blender.org
v 0.141421 0.250000 0.141421
v 0.000000 1.000000 -0.000000
v -0.141421 0.250000 0.141421
v -0.141421 0.250000 -0.141421
v 0.141421 0.250000 -0.141421
v 0.064000 0.000000 -0.064000
v 0.064000 0.250000 -0.064000
v 0.064000 0.000000 0.064000
v 0.064000 0.250000 0.064000
v -0.064000 0.000000 -0.064000
v -0.064000 0.250000 -0.064000
v -0.064000 0.000000 0.064000
v -0.064000 0.250000 0.064000
vt 0.321550 0.263030
vt 0.187500 0.973939
vt 0.053450 0.263030
vt 0.321550 0.263030
vt 0.053450 0.263030
vt 0.321550 0.263031
vt 0.053450 0.263031
vt 0.321550 0.263030
vt 0.053450 0.263030
vt 0.320339 0.262180
vt 0.054661 0.262180
vt 0.054661 0.262180
vt 0.248164 0.263030
vt 0.126836 0.026061
vt 0.248164 0.026061
vt 0.248164 0.263030
vt 0.126836 0.026061
vt 0.248164 0.026061
vt 0.248164 0.263030
vt 0.126836 0.026061
vt 0.248164 0.026061
vt 0.248164 0.263030
vt 0.126836 0.026061
vt 0.248164 0.026061
vt 0.247616 0.027351
vt 0.127384 0.027351
vt 0.127384 0.027351
vt 0.320339 0.262180
vt 0.126836 0.263030
vt 0.126836 0.263030
vt 0.126836 0.263030
vt 0.126836 0.263030
vt 0.247616 0.027351
vn -0.0000 0.1853 0.9827
vn -0.9827 0.1853 0.0000
vn 0.0000 0.1853 -0.9827
vn 0.9827 0.1853 0.0000
vn 0.0000 -1.0000 -0.0000
vn 1.0000 0.0000 0.0000
vn 0.0000 0.0000 1.0000
vn -1.0000 0.0000 0.0000
vn 0.0000 0.0000 -1.0000
s off
f 1/1/1 2/2/1 3/3/1
f 3/4/2 2/2/2 4/5/2
f 4/6/3 2/2/3 5/7/3
f 5/8/4 2/2/4 1/9/4
f 3/10/5 5/11/5 1/12/5
f 7/13/6 8/14/6 6/15/6
f 9/16/7 12/17/7 8/18/7
f 13/19/8 10/20/8 12/21/8
f 11/22/9 6/23/9 10/24/9
f 12/25/5 6/26/5 8/27/5
f 3/10/5 4/28/5 5/11/5
f 7/13/6 9/29/6 8/14/6
f 9/16/7 13/30/7 12/17/7
f 13/19/8 11/31/8 10/20/8
f 11/22/9 7/32/9 6/23/9
f 12/25/5 10/33/5 6/26/5
